<svg id="visual" viewBox="0 0 900 600" width="900" height="600"
  style="opacity: 0.01"
  xmlns="http://www.w3.org/2000/svg"
  xmlns:xlink="http://www.w3.org/1999/xlink" version="1.1">
  <g>
    <g transform="translate(443 513)">
      <path d="M36.3 -42.9C45.3 -35.7 49.5 -22.6 51.8 -9.2C54.1 4.2 54.3 17.9 48.4 27.7C42.4 37.5 30.2 43.4 18 46.7C5.8 50 -6.4 50.6 -16.6 46.5C-26.7 42.4 -34.7 33.5 -39.3 23.6C-43.9 13.8 -45 2.8 -43.8 -8.4C-42.7 -19.7 -39.3 -31.3 -31.7 -38.7C-24 -46 -12 -49.2 0.8 -50.2C13.7 -51.2 27.3 -50 36.3 -42.9Z" fill="none" stroke="#ffffff" stroke-width="3"></path>
    </g>
    <g transform="translate(290 51)">
      <path d="M20 -25.2C24.9 -19.8 26.9 -12.5 28.6 -4.8C30.2 2.8 31.3 10.8 29 18.6C26.7 26.4 21 34.1 13.2 37.5C5.4 40.9 -4.3 39.8 -12.7 36.2C-21 32.6 -27.9 26.4 -30.8 19C-33.7 11.6 -32.6 3 -30 -4.2C-27.4 -11.3 -23.3 -17.1 -18.1 -22.4C-12.8 -27.8 -6.4 -32.6 0.6 -33.3C7.6 -34 15.2 -30.6 20 -25.2Z" fill="none" stroke="#ffffff" stroke-width="3"></path>
    </g>
    <g transform="translate(648 192)">
      <path d="M18.2 -22.1C24.2 -16.7 30.1 -11.5 30.7 -5.7C31.4 0.1 26.8 6.4 22.2 11.4C17.7 16.4 13.1 19.9 7.5 23.1C1.8 26.3 -4.9 29 -11.4 28.1C-18 27.1 -24.4 22.4 -28.4 16.1C-32.4 9.7 -34.1 1.7 -31.8 -4.7C-29.6 -11 -23.4 -15.8 -17.4 -21.2C-11.5 -26.6 -5.7 -32.8 0.2 -33C6.1 -33.2 12.2 -27.5 18.2 -22.1Z" stroke="#ffffff" fill="none" stroke-width="3"></path>
    </g>
    <g transform="translate(796 267)">
      <path d="M21.2 -25.5C26 -21.3 27.4 -13.2 28 -5.6C28.5 2 28.3 9.1 25.7 16.1C23.2 23.2 18.3 30.1 12 32.1C5.6 34 -2.3 31 -9.8 27.8C-17.3 24.7 -24.5 21.5 -28.7 15.8C-32.8 10.1 -34.1 1.9 -33.3 -6.4C-32.4 -14.7 -29.5 -23.2 -23.6 -27.2C-17.7 -31.3 -8.9 -30.9 -0.3 -30.5C8.2 -30.1 16.4 -29.7 21.2 -25.5Z" stroke="#ffffff" fill="none" stroke-width="3"></path>
    </g>
    <g transform="translate(733 496)">
      <path d="M12 -12.9C16.3 -10.7 21.1 -7.6 22.9 -3.2C24.7 1.2 23.5 7.1 20.5 11.4C17.5 15.7 12.6 18.5 7.6 19.9C2.6 21.3 -2.6 21.4 -7.8 20.1C-13 18.8 -18.1 16.1 -20.1 12C-22 7.8 -20.8 2.2 -19.3 -2.9C-17.9 -8.1 -16.2 -12.7 -13 -15.1C-9.7 -17.4 -4.9 -17.5 -0.5 -16.9C3.8 -16.3 7.7 -15 12 -12.9Z" stroke="#ffffff" fill="none" stroke-width="3"></path>
    </g>
    <g transform="translate(84 529)">
      <path d="M28.3 -32.9C35.7 -27.5 40.2 -17.7 40 -8.6C39.7 0.5 34.8 8.9 29.5 16C24.2 23.1 18.4 29 10.9 33C3.5 37 -5.8 39.1 -15.2 37.5C-24.6 35.9 -34.1 30.6 -37.4 22.7C-40.6 14.8 -37.6 4.3 -35.4 -5.9C-33.1 -16.1 -31.7 -26 -25.9 -31.7C-20.1 -37.4 -10.1 -38.8 0.2 -39C10.4 -39.2 20.9 -38.3 28.3 -32.9Z" stroke="#ffffff" fill="none" stroke-width="3"></path>
    </g>
    <g transform="translate(275 298)">
      <path d="M27 -33.2C33.8 -26.4 37.5 -16.8 38.6 -7.3C39.7 2.3 38.2 11.8 33.8 19.4C29.3 27.1 21.7 33 13.7 34.7C5.7 36.3 -2.8 33.8 -10.7 30.5C-18.6 27.2 -25.9 23.1 -31.7 16.6C-37.6 10 -42.1 0.9 -40.2 -6.6C-38.2 -14 -29.9 -19.9 -22.1 -26.5C-14.4 -33.2 -7.2 -40.7 1.4 -42.4C10.1 -44.1 20.1 -40 27 -33.2Z" stroke="#ffffff" fill="none" stroke-width="3"></path>
    </g>
    <g transform="translate(761 103)">
      <path d="M13.3 -16.4C16.3 -13.3 17.2 -8.2 18.2 -3.1C19.2 2 20.3 7.2 18.7 11.5C17 15.7 12.6 19.1 7.7 20.6C2.9 22 -2.4 21.6 -6.7 19.5C-10.9 17.5 -14.1 13.7 -15.9 9.7C-17.6 5.6 -17.9 1.2 -16.8 -2.6C-15.7 -6.4 -13.2 -9.6 -10.2 -12.8C-7.2 -15.9 -3.6 -19.1 0.8 -20C5.1 -20.9 10.2 -19.6 13.3 -16.4Z" stroke="#ffffff" fill="none" stroke-width="3"></path>
    </g>
    <g transform="translate(485 251)">
      <path d="M22.8 -26.9C30.3 -20.8 37.8 -14.4 38.9 -7C40.1 0.4 35 8.8 30.4 18.2C25.8 27.6 21.7 38 14.4 41.7C7 45.4 -3.6 42.3 -11.5 37.1C-19.4 31.8 -24.5 24.5 -28.9 16.8C-33.2 9 -36.8 1 -35.6 -6.4C-34.5 -13.9 -28.7 -20.6 -22 -26.9C-15.3 -33.1 -7.7 -38.9 0 -38.9C7.6 -38.9 15.2 -33 22.8 -26.9Z" stroke="#ffffff" fill="none" stroke-width="3"></path>
    </g>
    <g transform="translate(413 3)">
      <path d="M16.4 -18.5C20.8 -16 23.3 -10.3 23.9 -4.6C24.5 1.1 23 6.8 19.9 10.7C16.7 14.5 11.7 16.6 6.9 18.1C2 19.5 -2.8 20.2 -7.5 19.2C-12.2 18.1 -16.8 15.2 -19.4 11.1C-22 6.9 -22.6 1.4 -21.1 -3.2C-19.7 -7.8 -16.2 -11.5 -12.4 -14.1C-8.5 -16.7 -4.3 -18.2 0.9 -19.3C6.1 -20.3 12.1 -21 16.4 -18.5Z" stroke="#ffffff" fill="none" stroke-width="3"></path>
    </g>
    <g transform="translate(102 171)">
      <path d="M26.1 -28.9C35.3 -23.4 45.3 -16.6 48.5 -7.3C51.6 2 47.8 13.7 41 21.9C34.1 30.2 24.3 34.9 14.8 36.6C5.4 38.2 -3.7 36.8 -12 33.5C-20.3 30.3 -27.8 25.3 -32.1 18.3C-36.4 11.3 -37.4 2.3 -36.2 -6.7C-35 -15.6 -31.4 -24.4 -25 -30.4C-18.6 -36.5 -9.3 -39.7 -0.4 -39.2C8.4 -38.7 16.9 -34.4 26.1 -28.9Z" stroke="#ffffff" fill="none" stroke-width="3"></path>
    </g>
    <g transform="translate(208 452)">
      <path d="M26.7 -31.8C33.3 -26.3 36.5 -16.6 37.9 -7C39.2 2.7 38.7 12.4 34.3 19.5C29.8 26.6 21.4 31.2 12.8 33.6C4.2 36.1 -4.6 36.3 -12.4 33.7C-20.3 31 -27.3 25.4 -32.1 18.1C-36.8 10.8 -39.2 1.7 -39.3 -8.4C-39.3 -18.6 -36.8 -29.8 -29.9 -35.2C-22.9 -40.7 -11.5 -40.4 -0.7 -39.5C10 -38.7 20.1 -37.3 26.7 -31.8Z" stroke="#ffffff" fill="none" stroke-width="3"></path>
    </g>
    <g transform="translate(639 10)">
      <path d="M15.1 -19.2C18.7 -15.1 20 -9.4 21 -3.7C22.1 2.1 22.9 7.9 20.6 12C18.3 16.1 13 18.6 7.8 19.8C2.6 21 -2.5 21 -7.1 19.4C-11.8 17.8 -15.9 14.7 -18.9 10.4C-21.9 6.2 -23.8 0.8 -23.6 -4.9C-23.4 -10.5 -21.2 -16.6 -16.9 -20.6C-12.6 -24.6 -6.3 -26.6 -0.3 -26.3C5.8 -26 11.6 -23.3 15.1 -19.2Z" stroke="#ffffff" fill="none" stroke-width="3"></path>
    </g>
    <g transform="translate(310 592)">
      <path d="M14.8 -19.2C18 -14.9 18.7 -9.2 18.9 -4C19.1 1.2 18.7 5.9 16.8 10.2C15 14.6 11.6 18.5 7 21C2.4 23.5 -3.4 24.5 -8.3 22.7C-13.1 21 -16.9 16.5 -19.3 11.5C-21.7 6.6 -22.7 1.2 -22.1 -4.2C-21.4 -9.6 -19.3 -15 -15.3 -19.2C-11.4 -23.4 -5.7 -26.4 0 -26.4C5.8 -26.5 11.5 -23.5 14.8 -19.2Z" stroke="#ffffff" fill="none" stroke-width="3"></path>
    </g>
    <g transform="translate(86 383)">
      <path d="M28.6 -34.6C35.6 -28.2 38.8 -17.8 40.1 -7.5C41.3 2.7 40.6 12.9 35.8 20.2C31 27.6 22.2 32.1 12.8 35.9C3.4 39.7 -6.6 42.6 -16.3 40.8C-25.9 39 -35.3 32.4 -40.1 23.5C-44.8 14.5 -45 3.3 -42.7 -7.1C-40.3 -17.5 -35.5 -27.1 -28 -33.4C-20.5 -39.6 -10.2 -42.6 0.3 -43C10.8 -43.3 21.6 -40.9 28.6 -34.6Z" stroke="#ffffff" fill="none" stroke-width="3"></path>
    </g>
    <g transform="translate(35 54)">
      <path d="M27.9 -33.5C36.6 -26.1 44.1 -17.6 45.4 -8.3C46.7 1 41.7 11.1 35.8 20.1C29.9 29.1 23.1 36.9 13.6 42.7C4.1 48.5 -8.1 52.1 -16.7 48.1C-25.4 44 -30.4 32.3 -35.7 21.5C-40.9 10.6 -46.2 0.8 -45 -8.2C-43.7 -17.2 -35.8 -25.3 -27.2 -32.7C-18.7 -40.1 -9.3 -46.9 0.2 -47.1C9.7 -47.3 19.3 -40.9 27.9 -33.5Z" stroke="#ffffff" fill="none" stroke-width="3"></path>
    </g>
    <g transform="translate(355 176)">
      <path d="M27.4 -31.8C36.3 -25.1 44.9 -17.3 47.7 -7.5C50.6 2.3 47.7 14.1 41.5 23.2C35.3 32.2 25.8 38.6 15.4 42.3C5 46.1 -6.3 47.3 -17.3 44.6C-28.4 41.9 -39.1 35.3 -44.8 25.7C-50.4 16.1 -51 3.5 -48.3 -7.9C-45.5 -19.2 -39.3 -29.4 -30.7 -36.1C-22.1 -42.8 -11 -46.2 -0.9 -45.1C9.2 -44 18.4 -38.5 27.4 -31.8Z" stroke="#ffffff" fill="none" stroke-width="3"></path>
    </g>
    <g transform="translate(637 380)">
      <path d="M18.3 -22.3C23.9 -17.2 28.6 -11.5 31.3 -4.3C33.9 2.9 34.6 11.6 30.8 17.4C27 23.1 18.7 25.9 11.1 27.3C3.4 28.7 -3.6 28.8 -10.7 27.2C-17.8 25.5 -25 22 -29.4 16.1C-33.8 10.2 -35.4 1.9 -34.6 -6.7C-33.8 -15.2 -30.5 -23.9 -24.4 -28.9C-18.2 -33.9 -9.1 -35.3 -1.4 -33.7C6.4 -32.1 12.8 -27.5 18.3 -22.3Z" stroke="#ffffff" fill="none" stroke-width="3"></path>
    </g>
    <g transform="translate(1 279)">
      <path d="M22.1 -26.8C27.6 -21.8 30.2 -13.8 31 -5.9C31.8 1.9 30.8 9.6 27.4 16.1C24 22.7 18.1 28.2 10.5 32.7C2.8 37.3 -6.7 40.8 -14.2 38.4C-21.8 35.9 -27.5 27.6 -30.9 19.1C-34.2 10.7 -35.2 2.2 -33.7 -5.9C-32.2 -14 -28.4 -21.6 -22.4 -26.5C-16.3 -31.5 -8.2 -33.7 0.1 -33.8C8.3 -33.9 16.7 -31.9 22.1 -26.8Z" stroke="#ffffff" fill="none" stroke-width="3"></path>
    </g>
    <g transform="translate(853 553)">
      <path d="M22.8 -26.4C30 -21 36.8 -14.4 38.5 -6.6C40.1 1.2 36.6 10.2 31.4 17.1C26.1 24 19.2 28.9 10.5 34.6C1.7 40.4 -8.9 46.9 -16.7 44.6C-24.4 42.3 -29.4 31.1 -34.2 20.7C-39 10.4 -43.7 0.9 -43.6 -9.1C-43.5 -19.2 -38.7 -29.8 -30.7 -35C-22.6 -40.2 -11.3 -40 -1.8 -37.9C7.8 -35.8 15.5 -31.7 22.8 -26.4Z" stroke="#ffffff" fill="none" stroke-width="3"></path>
    </g>
    <g transform="translate(893 69)">
      <path d="M17.5 -19.3C23.2 -16 28.8 -11 31.1 -4.5C33.3 2 32.3 10 28.4 16.1C24.5 22.2 17.8 26.4 10.5 29.3C3.2 32.1 -4.8 33.6 -10.2 30.6C-15.6 27.5 -18.4 19.9 -20.5 13.3C-22.7 6.7 -24.1 1.1 -23.2 -4.1C-22.4 -9.4 -19.2 -14.3 -15 -17.9C-10.7 -21.5 -5.4 -23.8 0.3 -24.1C5.9 -24.4 11.7 -22.7 17.5 -19.3Z" stroke="#ffffff" fill="none" stroke-width="3"></path>
    </g>
  </g>
</svg>